<?xml version="1.0" encoding="UTF-8"?>
<svg id="Capa_2" data-name="Capa 2" xmlns="http://www.w3.org/2000/svg" viewBox="0 0 46.02 33.49">
  <defs>
    <style>
      .cls-1 {
        fill: #88bf90;
      }
    </style>
  </defs>
  <g id="Capa_1-2" data-name="Capa 1">
    <g>
      <path class="cls-1" d="m44.96,2.99c-.06.2-.26.27-.41.38-2.65,1.86-5.31,3.72-7.96,5.58-4.34,3.04-8.68,6.06-13.01,9.11-.41.29-.68.31-1.11.01C15.47,13.15,8.47,8.25,1.46,3.36c-.4-.28-.42-.47-.13-.84C2.58.92,4.22.02,6.24.02c11.18-.03,22.35-.03,33.53,0,2.06,0,3.73.91,4.98,2.57.09.12.19.22.21.39Z"/>
      <path class="cls-1" d="m23.02,33.49c-5.52,0-11.04,0-16.56,0-.84,0-1.65-.16-2.43-.47-.33-.13-.41-.25-.1-.53,3.56-3.2,7.12-6.4,10.68-9.6,1.02-.91,2.04-1.82,3.05-2.74.24-.22.42-.22.67-.04,1.09.77,2.19,1.52,3.29,2.28.99.69,1.8.7,2.79,0,1.07-.74,2.15-1.47,3.2-2.24.35-.25.57-.23.88.05,2.36,2.14,4.74,4.28,7.11,6.41,2.13,1.92,4.26,3.83,6.39,5.75.48.43.47.51-.16.73-.76.27-1.54.4-2.35.4-5.49,0-10.97,0-16.46,0Z"/>
      <path class="cls-1" d="m.02,17.68c0-3.24,0-6.48,0-9.72,0-.17-.09-.39.11-.49.16-.08.29.11.42.2,4.46,3.12,8.91,6.23,13.37,9.35.04.03.08.06.12.08.53.38.52.37.05.8-4.31,3.87-8.63,7.74-12.94,11.61-.45.4-.51.39-.71-.16-.27-.72-.42-1.47-.42-2.24,0-3.14,0-6.29,0-9.43Z"/>
      <path class="cls-1" d="m46.01,17.73c0,3.13,0,6.25,0,9.38,0,.83-.17,1.61-.47,2.38-.13.34-.27.38-.55.13-2.86-2.58-5.74-5.16-8.61-7.74-1.49-1.34-2.98-2.68-4.47-4.01-.43-.38-.44-.39.04-.73,4.53-3.18,9.07-6.35,13.6-9.52.1-.07.21-.21.34-.15.18.09.1.29.1.44,0,3.27,0,6.55,0,9.82Z"/>
    </g>
  </g>
</svg>