<?xml version="1.0" encoding="UTF-8"?>
<svg id="Capa_2" data-name="Capa 2" xmlns="http://www.w3.org/2000/svg" viewBox="0 0 33.59 33.58">
  <defs>
    <style>
      .cls-1 {
        fill: #88bf90;
      }
    </style>
  </defs>
  <g id="Capa_1-2" data-name="Capa 1">
    <path class="cls-1" d="m33.59,28.31c0,.51,0,1.02,0,1.53-.01,2.12-1.64,3.76-3.77,3.75-7.55-.02-14.16-2.54-19.8-7.54C4.77,21.4,1.6,15.57.39,8.68.1,7-.03,5.3,0,3.6.05,1.69,1.69.03,3.59.01c1.08-.01,2.15-.01,3.23,0,1.62.02,2.79.79,3.44,2.24.6,1.32,1.12,2.68,1.63,4.05.67,1.79-.13,3.69-1.9,4.65-.6.32-.61.33-.4.98,1.94,6.23,6.05,10.27,12.29,12.15.37.11.53.01.7-.32,1.03-2.04,2.92-2.75,5.05-1.93,1.21.47,2.41.95,3.6,1.44,1.47.61,2.34,1.92,2.35,3.51,0,.51,0,1.02,0,1.53Z"/>
  </g>
</svg>