<?xml version="1.0" encoding="UTF-8"?>
<svg id="Capa_2" data-name="Capa 2" xmlns="http://www.w3.org/2000/svg" viewBox="0 0 28.94 33.49">
  <defs>
    <style>
      .cls-1 {
        fill: #88bf90;
      }
    </style>
  </defs>
  <g id="Capa_1-2" data-name="Capa 1">
    <g>
      <path class="cls-1" d="m2.25,33.49c-.86-.26-1.56-.72-1.96-1.55-.18-.37-.28-.75-.28-1.16,0-2.47,0-4.94,0-7.42,0-1.46,1.2-2.68,2.66-2.75.13,0,.26,0,.39,0,7.63,0,15.27,0,22.9,0,1.52,0,2.65.9,2.92,2.33.04.2.04.41.04.62,0,2.33,0,4.66,0,6.99,0,1.47-.71,2.43-2.12,2.89-.04.01-.08.03-.12.05H2.25Zm19.84-6.24c.14.14.14.27.17.38.14.57.29,1.14.41,1.71.06.28.2.39.47.36.08,0,.15-.01.23,0,.29.04.42-.1.5-.38.33-1.22.68-2.43,1.03-3.64.22-.77.22-.76-.59-.75-.25,0-.34.1-.4.33-.15.61-.31,1.22-.47,1.83-.03.1-.02.23-.17.34-.15-.64-.29-1.24-.44-1.84-.18-.76-.06-.63-.81-.66-.23,0-.35.07-.41.31-.16.64-.34,1.28-.51,1.93-.02.09-.01.2-.17.24-.14-.6-.27-1.19-.42-1.78-.2-.8-.03-.68-.91-.7-.29,0-.36.09-.28.37.35,1.33.69,2.66,1.01,3.99.07.31.21.43.53.42.57-.02.56,0,.68-.43.18-.66.36-1.32.56-2.03Zm-15.37,0c.13.09.12.17.14.24.16.63.32,1.27.47,1.9.05.22.15.32.38.3.1-.01.2-.01.29,0,.29.04.43-.09.51-.37.33-1.22.69-2.43,1.02-3.65.21-.78.39-.74-.58-.75-.25,0-.35.1-.4.32-.15.6-.3,1.2-.47,1.8-.03.1-.02.24-.19.31-.15-.62-.28-1.22-.44-1.82-.17-.67-.03-.6-.79-.62-.27,0-.38.1-.44.36-.13.56-.28,1.12-.44,1.67-.04.15-.05.32-.17.44-.1-.05-.09-.15-.11-.23-.12-.51-.24-1.02-.36-1.52-.2-.81,0-.7-.92-.72-.28,0-.36.06-.28.35.35,1.35.7,2.7,1.02,4.05.08.32.25.38.54.37.29-.02.57.06.67-.37.15-.69.36-1.36.56-2.08Zm6.63.15s-.07,0-.11,0c-.14-.59-.27-1.18-.42-1.77-.2-.83-.06-.7-.87-.71-.41,0-.42,0-.32.4.31,1.25.63,2.49.95,3.74.18.7.04.62.84.64.22,0,.34-.08.39-.29.1-.41.21-.82.33-1.23.09-.3.13-.61.28-.89.11.08.11.18.14.27.15.61.31,1.23.44,1.84.05.22.16.32.38.3.1,0,.2-.01.29,0,.29.04.42-.08.5-.37.33-1.22.69-2.43,1.02-3.65.24-.87.31-.73-.56-.75-.26,0-.36.1-.42.34-.15.61-.31,1.22-.47,1.83-.03.1-.01.22-.13.28-.08-.09-.09-.2-.11-.3-.15-.61-.3-1.23-.44-1.84-.02-.1-.02-.22-.12-.26-.27-.1-.56-.07-.84-.03-.18.03-.17.23-.21.37-.19.69-.37,1.38-.55,2.07Z"/>
      <path class="cls-1" d="m14.47,15.33c-1.27,0-2.55,0-3.82,0-.24,0-.32.06-.31.31.02.72.05,1.44.14,2.15.02.14.02.28.01.42-.02.44-.32.79-.72.84-.49.07-.89-.17-.99-.64-.08-.35-.11-.71-.13-1.07-.04-.56-.06-1.13-.07-1.7,0-.23-.07-.33-.32-.33-2.05,0-4.09,0-6.14,0-.26,0-.3.09-.28.34.08.75.22,1.48.41,2.21.14.56-.11,1.04-.6,1.16-.52.13-.95-.13-1.11-.7C0,16.45-.13,14.53.12,12.59c.36-2.83,1.48-5.34,3.34-7.5C5.72,2.45,8.57.79,12,.22c4.5-.74,8.53.37,11.98,3.35,2.73,2.36,4.34,5.37,4.83,8.97.25,1.88.14,3.73-.34,5.57-.04.14-.07.27-.12.41-.18.43-.64.66-1.07.52-.44-.14-.71-.56-.61-1.02.18-.79.36-1.57.44-2.37.03-.26-.05-.32-.29-.32-2.04,0-4.07,0-6.11,0-.26,0-.34.11-.34.35.02.82-.08,1.63-.14,2.44-.04.51-.29.83-.69.93-.37.09-.73-.05-.95-.36-.19-.27-.16-.58-.13-.89.08-.71.11-1.43.14-2.15,0-.27-.08-.33-.33-.33-1.26,0-2.53,0-3.79,0Zm-9.29-1.78c1.01,0,2.02,0,3.04,0,.25,0,.35-.08.35-.34,0-1.43.16-2.84.39-4.25.04-.27-.02-.4-.3-.49-1.33-.42-2.59-1.03-3.77-1.78-.25-.16-.37-.14-.55.1-1.39,1.88-2.25,3.96-2.49,6.3-.05.46-.05.46.42.46.97,0,1.94,0,2.91,0Zm18.56,0c1.02,0,2.05,0,3.07,0,.18,0,.32,0,.3-.26-.24-2.42-1.09-4.6-2.56-6.54-.15-.19-.25-.2-.45-.08-1.2.77-2.49,1.38-3.85,1.82-.27.09-.32.22-.28.47.23,1.4.38,2.8.38,4.22,0,.29.11.37.38.37,1-.01,2,0,3,0Zm-9.32,0c1.28,0,2.57,0,3.85,0,.2,0,.31-.03.31-.28-.02-1.27-.16-2.54-.32-3.8-.05-.35-.18-.4-.49-.33-.91.19-1.83.28-2.75.31-1.33.04-2.65-.07-3.96-.32-.26-.05-.36,0-.4.28-.18,1.25-.3,2.5-.33,3.77,0,.3.06.39.37.39,1.24-.02,2.48,0,3.72,0Zm.07-5.89c1.01.03,2.02-.1,3.03-.27.18-.03.33-.07.26-.33-.35-1.33-.78-2.63-1.5-3.81-.3-.49-.65-.93-1.13-1.25-.45-.29-.92-.29-1.38,0-.33.2-.59.48-.82.79-.95,1.29-1.42,2.78-1.82,4.3-.07.26.1.27.26.3,1.02.18,2.04.3,3.1.28Zm3.24-5.46c.17.3.3.52.42.75.6,1.14,1.01,2.36,1.33,3.6.05.19.09.32.34.23,1.07-.38,2.09-.85,3.07-1.43.18-.11.2-.21.04-.34-.35-.28-.68-.57-1.04-.84-1.23-.9-2.59-1.55-4.15-1.97Zm-6.54.02c-.18.04-.28.06-.37.08-1.01.31-1.98.72-2.89,1.27-.68.41-1.32.88-1.92,1.41-.17.15-.17.25.03.36.96.56,1.96,1.04,3.01,1.41.24.08.34.02.39-.22.08-.33.17-.65.27-.97.35-1.15.79-2.25,1.47-3.34Z"/>
    </g>
  </g>
</svg>